# xmcd CD database file
#
# Track frame offsets:
#	150
#	14677
#	31897
#	47882
#	61980
#	73215
#	103947
#	116412
#	131590
#
# Disc length: 1929 seconds
#
# Revision: 3
# Processed by: cddbd v1.5.1PL2 Copyright (c) Steve Scherf et al.
# Submitted via: CDex 1.51
#
DISCID=82078709
DTITLE=Stevie Wonder - eivets rednow
DYEAR=1968
DGENRE=
TTITLE0=Alfie
TTITLE1=More Than A Dream
TTITLE2=A House Is Not A Home
TTITLE3=How Can You Believe
TTITLE4=Never My Love/Ask The Lonely
TTITLE5=Ruby
TTITLE6=Which Way The Wind
TTITLE7=Bye Bye World
TTITLE8=Grazing In The Grass
EXTD=YEAR: 1968
EXTT0=
EXTT1=
EXTT2=
EXTT3=
EXTT4=
EXTT5=
EXTT6=
EXTT7=
EXTT8=
PLAYORDER=
